<svg xmlns="http://www.w3.org/2000/svg" width="512" height="512" viewBox="0 0 512 512">
  <defs>
    <linearGradient id="bg" x1="0" y1="0" x2="1" y2="1">
      <stop offset="0%" stop-color="#FF9A1F"/>
      <stop offset="100%" stop-color="#FF6B00"/>
    </linearGradient>
  </defs>

  <rect width="512" height="512" rx="112" fill="url(#bg)"/>

  <text
    x="256"
    y="135"
    text-anchor="middle"
    font-family="Arial, sans-serif"
    font-size="82"
    font-weight="800"
    fill="#FFFFFF"
  >
    seç
  </text>

  <path
    d="M92 190h52l30 170h205l38-125H170"
    fill="none"
    stroke="#FFFFFF"
    stroke-width="22"
    stroke-linecap="round"
    stroke-linejoin="round"
  />

  <path
    d="M150 225h260l-30 125H175z"
    fill="#FFFFFF"
    fill-opacity="0.12"
    stroke="#FFFFFF"
    stroke-width="8"
    stroke-linejoin="round"
  />

  <rect x="178" y="248" width="58" height="78" rx="8" fill="#EF4444"/>
  <rect x="188" y="232" width="38" height="18" rx="5" fill="#FCA5A5"/>

  <rect x="248" y="270" width="62" height="58" rx="8" fill="#FACC15"/>
  <path d="M262 270v58M296 270v58" stroke="#FFFFFF" stroke-width="5"/>

  <rect x="320" y="255" width="48" height="73" rx="18" fill="#38BDF8"/>
  <rect x="326" y="243" width="36" height="15" rx="5" fill="#BAE6FD"/>

  <!-- Sepet telleri -->
  <g
    fill="none"
    stroke="#FFFFFF"
    stroke-width="5"
    stroke-linecap="round"
    opacity="0.9"
  >
    <path d="M158 255h242"/>
    <path d="M166 290h234"/>
    <path d="M174 325h226"/>

    <path d="M190 228l12 121"/>
    <path d="M235 228l8 121"/>
    <path d="M280 228l4 121"/>
    <path d="M325 228l-2 121"/>
    <path d="M370 228l-8 121"/>
  </g>

  <circle cx="190" cy="395" r="20" fill="#FFFFFF"/>
  <circle cx="365" cy="395" r="20" fill="#FFFFFF"/>
</svg>